<?xml version="1.0" encoding="UTF-8" standalone="no"?>
<!-- Created with Inkscape (http://www.inkscape.org/) -->

<svg
   xmlns:dc="http://purl.org/dc/elements/1.1/"
   xmlns:cc="http://creativecommons.org/ns#"
   xmlns:rdf="http://www.w3.org/1999/02/22-rdf-syntax-ns#"
   xmlns:svg="http://www.w3.org/2000/svg"
   xmlns="http://www.w3.org/2000/svg"
   xmlns:sodipodi="http://sodipodi.sourceforge.net/DTD/sodipodi-0.dtd"
   xmlns:inkscape="http://www.inkscape.org/namespaces/inkscape"
   width="128mm"
   height="128mm"
   viewBox="0 0 128 128"
   version="1.1"
   id="svg8"
   inkscape:version="0.92.5 (2060ec1f9f, 2020-04-08)"
   sodipodi:docname="icon.svg"
   inkscape:export-filename="/home/eoin/www/arcade/card-games/countries/i/icon-192.png"
   inkscape:export-xdpi="38.099998"
   inkscape:export-ydpi="38.099998">
  <defs
     id="defs2" />
  <sodipodi:namedview
     id="base"
     pagecolor="#ffffff"
     bordercolor="#666666"
     borderopacity="1.0"
     inkscape:pageopacity="0.0"
     inkscape:pageshadow="2"
     inkscape:zoom="1"
     inkscape:cx="-322.28571"
     inkscape:cy="401.63884"
     inkscape:document-units="px"
     inkscape:current-layer="layer1"
     showgrid="false"
     inkscape:window-width="1920"
     inkscape:window-height="1016"
     inkscape:window-x="0"
     inkscape:window-y="27"
     inkscape:window-maximized="1" />
  <metadata
     id="metadata5">
    <rdf:RDF>
      <cc:Work
         rdf:about="">
        <dc:format>image/svg+xml</dc:format>
        <dc:type
           rdf:resource="http://purl.org/dc/dcmitype/StillImage" />
        <dc:title></dc:title>
      </cc:Work>
    </rdf:RDF>
  </metadata>
  <g
     inkscape:label="Layer 1"
     inkscape:groupmode="layer"
     id="layer1"
     transform="translate(0,-169)">
    <text
       xml:space="preserve"
       style="font-style:normal;font-weight:normal;font-size:10.58333302px;line-height:1.25;font-family:sans-serif;letter-spacing:0px;word-spacing:0px;fill:#000000;fill-opacity:1;stroke:none;stroke-width:0.26458332"
       x="67.619186"
       y="187.15222"
       id="text16"><tspan
         sodipodi:role="line"
         id="tspan14"
         x="67.619186"
         y="196.51599"
         style="stroke-width:0.26458332" /></text>
    <path
       inkscape:connector-curvature="0"
       id="path109"
       d="m 38.0725,292.45898 c -0.315333,-0.51532 -4.127362,-12.64477 -27.324966,-86.94522 -4.0104983,-12.84539 -7.2918284,-23.863 -7.2918284,-24.48362 0,-1.54629 2.9282836,-4.35109 4.5426607,-4.35109 0.7259672,0 2.2903237,0.84527 3.4763507,1.87835 3.55684,3.09822 14.37365,4.98918 28.415517,4.96749 9.833048,-0.0149 12.370075,-0.26037 21.335507,-2.06181 16.508354,-3.31708 19.020842,-3.67693 25.922853,-3.71273 7.179729,-0.0372 12.800336,1.04242 14.346756,2.75592 0.88101,0.97617 6.19485,16.93511 14.21599,42.69453 2.67513,8.59105 2.93844,11.39324 1.13554,12.08509 -0.46602,0.17889 -3.41656,0.007 -6.55681,-0.38225 -6.5171,-0.80742 -14.418729,0.0586 -31.667665,3.47074 -16.222994,3.2092 -27.627197,3.28218 -42.247352,0.27025 -2.655479,-0.54705 -4.995451,-0.82732 -5.199949,-0.62282 -0.204449,0.20445 0.883621,4.43249 2.41803,9.39554 3.020608,9.77013 7.306417,23.58144 10.515347,33.88653 2.270722,7.29203 2.451029,9.0824 1.033211,10.25907 -1.204611,0.99974 -6.588167,1.68211 -7.069192,0.89603 z"
       style="fill:#000000;stroke-width:0.65647781" />
    <g
       id="g122"
       style="fill:#000000"
       transform="matrix(2.4811758,0,0,2.4811758,-377.99788,-203.92272)">
      <path
         style="fill:#000000;stroke-width:0.26458335"
         d="m 168.30677,199.3198 c -0.13876,-0.1672 -1.6816,-4.88328 -3.42854,-10.48018 -1.74695,-5.5969 -4.78933,-15.34664 -6.76085,-21.66608 -1.97152,-6.31944 -3.58459,-11.6832 -3.58459,-11.91947 0,-1.04917 1.24548,-1.39869 2.04022,-0.57256 0.26988,0.28055 1.04194,0.56649 1.79624,0.66525 0.7276,0.0953 2.21589,0.35069 3.30729,0.56759 1.09141,0.21691 3.65125,0.46332 5.68854,0.54759 3.8413,0.15888 4.31103,0.10255 13.49375,-1.6182 3.70551,-0.69438 6.69574,-0.91213 8.83895,-0.64367 2.47036,0.30945 3.31322,0.63827 3.67579,1.43401 0.21888,0.48039 3.07365,9.4439 6.17664,19.39364 0.47003,1.50715 0.44298,1.51687 -4.29369,1.54308 -3.89767,0.0216 -4.83237,0.12328 -9.10602,0.99088 -2.61938,0.53176 -5.77453,1.10241 -7.01146,1.26811 -2.6632,0.35677 -7.66565,0.1489 -10.71562,-0.44527 -3.81607,-0.74343 -4.36563,-0.7757 -4.36563,-0.2564 0,0.25274 0.90482,3.33409 2.0107,6.84743 3.83423,12.18112 4.29396,13.78553 4.03961,14.09765 -0.3598,0.44152 -1.50899,0.59884 -1.80133,0.2466 z"
         id="path107"
         inkscape:connector-curvature="0" />
    </g>
    <path
       inkscape:connector-curvature="0"
       id="path105"
       d="m 43.500841,238.6754 c -5.67167,-0.89072 -13.725889,-2.63441 -14.1562,-3.0647 -0.728771,-0.72877 -16.041769,-50.93789 -16.041769,-52.59867 0,-1.32381 -0.520575,-1.34189 8.205968,0.28526 9.431966,1.75871 21.551865,2.31618 28.615376,1.31624 3.03681,-0.42991 10.10042,-1.68492 15.696885,-2.78889 12.043578,-2.37575 24.236274,-3.12837 30.195041,-1.86381 2.160062,0.4584 4.193738,1.16303 4.519238,1.56587 0.32553,0.40282 1.97472,5.16365 3.6649,10.57958 1.69015,5.41594 4.22095,13.39215 5.62395,17.7249 3.53255,10.90897 6.54582,21.30035 6.54477,22.56972 -6.7e-4,0.93414 -1.29827,1.07093 -10.66776,1.12467 -8.952158,0.0514 -11.986016,0.34508 -18.872867,1.82721 -20.334426,4.37623 -31.276039,5.21528 -43.327532,3.32262 z"
       style="fill:#729fcf;stroke-width:0.65647781" />
    <path
       style="fill:#eeeeec;stroke-width:0.37747467"
       d="M 60.061697,191.09528 A 18.873734,18.873734 0 0 0 43.077924,211.68621 18.873734,18.873734 0 0 0 63.66888,228.66998 18.873734,18.873734 0 0 0 80.652652,208.07903 18.873734,18.873734 0 0 0 60.061697,191.09528 Z m 1.111194,8.69736 c 1.948815,-0.18708 3.551804,0.0888 4.809164,0.82703 1.267931,0.73731 1.968516,1.80399 2.102449,3.1992 0.06401,0.66689 -0.0655,1.32091 -0.388502,1.96299 -0.324017,0.63332 -0.92667,1.373 -1.807462,2.21918 l -1.289318,1.26657 c -0.458199,0.46023 -0.781571,0.81876 -0.970661,1.07601 -0.179389,0.24762 -0.301165,0.48522 -0.364857,0.71274 -0.0459,0.19031 -0.07146,0.41813 -0.07816,0.68446 -0.0074,0.26628 0.01241,0.62781 0.05607,1.08413 l 0.155322,1.61891 -3.034602,0.29132 -0.194524,-2.02697 c -0.0851,-0.88628 -0.0074,-1.6286 0.234967,-2.22748 0.241915,-0.59883 0.803504,-1.32118 1.684297,-2.16733 l 1.317057,-1.30927 c 0.559084,-0.523 0.951159,-1.00304 1.176326,-1.44089 0.235712,-0.43885 0.333123,-0.87342 0.291861,-1.30341 -0.07493,-0.78098 -0.485318,-1.37944 -1.230664,-1.79493 -0.734775,-0.41657 -1.674024,-0.56956 -2.817871,-0.45977 -0.836727,0.0804 -1.717346,0.31941 -2.641088,0.71793 -0.913147,0.39761 -1.854778,0.94009 -2.825687,1.62664 l -0.237448,-2.47463 c 0.947561,-0.59575 1.917899,-1.06492 2.911064,-1.40822 1.003785,-0.34438 2.051387,-0.56947 3.14226,-0.67421 z m -0.720037,16.88696 3.22543,-0.30965 0.320915,3.34284 -3.225429,0.30963 z"
       id="path124"
       inkscape:connector-curvature="0" />
  </g>
</svg>
